<mxfile host="65bd71144e">
    <diagram name="Page-1" id="2cc2dc42-3aac-f2a9-1cec-7a8b7cbee084">
        <mxGraphModel dx="12140" dy="6977" grid="1" gridSize="10" guides="1" tooltips="1" connect="1" arrows="1" fold="1" page="1" pageScale="1" pageWidth="1100" pageHeight="850" background="none" math="0" shadow="0">
            <root>
                <mxCell id="0"/>
                <mxCell id="1" parent="0"/>
                <mxCell id="7026571954dc6520-1" value="" style="strokeWidth=1;shadow=0;dashed=0;align=center;html=1;shape=mxgraph.mockup.containers.browserWindow;rSize=0;strokeColor=#666666;mainText=,;recursiveResize=0;rounded=0;labelBackgroundColor=none;fontFamily=Verdana;fontSize=12" parent="1" vertex="1">
                    <mxGeometry x="-7740" y="-4260" width="1090" height="840" as="geometry"/>
                </mxCell>
                <mxCell id="7026571954dc6520-2" value="Page 1" style="strokeWidth=1;shadow=0;dashed=0;align=center;html=1;shape=mxgraph.mockup.containers.anchor;fontSize=17;fontColor=#666666;align=left;" parent="7026571954dc6520-1" vertex="1">
                    <mxGeometry x="60" y="12" width="110" height="26" as="geometry"/>
                </mxCell>
                <mxCell id="7026571954dc6520-3" value="https://www.default.com" style="strokeWidth=1;shadow=0;dashed=0;align=center;html=1;shape=mxgraph.mockup.containers.anchor;rSize=0;fontSize=17;fontColor=#666666;align=left;" parent="7026571954dc6520-1" vertex="1">
                    <mxGeometry x="130" y="60" width="250" height="26" as="geometry"/>
                </mxCell>
                <mxCell id="448" value="" style="rounded=0;whiteSpace=wrap;html=1;opacity=60;" parent="7026571954dc6520-1" vertex="1">
                    <mxGeometry y="110" width="1090" height="730" as="geometry"/>
                </mxCell>
                <mxCell id="479" value="&lt;b&gt;&lt;u&gt;ETMS&lt;/u&gt;&lt;/b&gt;" style="html=1;shadow=0;dashed=0;fillColor=#343A40;strokeColor=none;fontSize=16;fontColor=#ffffff;align=left;spacing=15;opacity=60;" parent="7026571954dc6520-1" vertex="1">
                    <mxGeometry y="110" width="1090" height="60" as="geometry"/>
                </mxCell>
                <mxCell id="480" value="Home" style="fillColor=none;strokeColor=none;fontSize=14;fontColor=#ffffff;align=center;opacity=60;" parent="479" vertex="1">
                    <mxGeometry width="70" height="40" relative="1" as="geometry">
                        <mxPoint x="740" y="10" as="offset"/>
                    </mxGeometry>
                </mxCell>
                <mxCell id="481" value="About" style="fillColor=none;strokeColor=none;fontSize=14;fontColor=#9A9DA0;align=center;opacity=60;" parent="479" vertex="1">
                    <mxGeometry width="70" height="40" relative="1" as="geometry">
                        <mxPoint x="810" y="10" as="offset"/>
                    </mxGeometry>
                </mxCell>
                <mxCell id="482" value="Contact" style="fillColor=none;strokeColor=none;fontSize=14;fontColor=#9A9DA0;align=center;spacingRight=0;opacity=60;" parent="479" vertex="1">
                    <mxGeometry width="80" height="40" relative="1" as="geometry">
                        <mxPoint x="860" y="10" as="offset"/>
                    </mxGeometry>
                </mxCell>
                <mxCell id="483" value="Admin" style="fillColor=none;strokeColor=none;fontSize=14;fontColor=#9A9DA0;align=center;opacity=60;" parent="479" vertex="1">
                    <mxGeometry width="80" height="40" relative="1" as="geometry">
                        <mxPoint x="920" y="10" as="offset"/>
                    </mxGeometry>
                </mxCell>
                <mxCell id="502" value="Employee" style="fillColor=none;strokeColor=none;fontSize=14;fontColor=#9A9DA0;align=center;opacity=60;" parent="479" vertex="1">
                    <mxGeometry x="990" y="10" width="80" height="40" as="geometry"/>
                </mxCell>
                <mxCell id="497" value="First slide" style="html=1;shadow=0;dashed=0;strokeColor=none;strokeWidth=1;fillColor=#7e7c7c;fontColor=#555555;whiteSpace=wrap;align=center;verticalAlign=middle;fontStyle=0;fontSize=40;opacity=50;" parent="7026571954dc6520-1" vertex="1">
                    <mxGeometry y="170" width="1090" height="470" as="geometry"/>
                </mxCell>
                <mxCell id="498" value="" style="html=1;verticalLabelPosition=bottom;labelBackgroundColor=#ffffff;verticalAlign=top;shadow=0;dashed=0;strokeWidth=4;shape=mxgraph.ios7.misc.more;strokeColor=#a0a0a0;" parent="497" vertex="1">
                    <mxGeometry x="1" y="0.5" width="7" height="9.5" relative="1" as="geometry">
                        <mxPoint x="-50" y="-7" as="offset"/>
                    </mxGeometry>
                </mxCell>
                <mxCell id="499" value="" style="flipH=1;html=1;verticalLabelPosition=bottom;labelBackgroundColor=#ffffff;verticalAlign=top;shadow=0;dashed=0;strokeWidth=4;shape=mxgraph.ios7.misc.more;strokeColor=#a0a0a0;" parent="497" vertex="1">
                    <mxGeometry y="0.5" width="7" height="14" relative="1" as="geometry">
                        <mxPoint x="43" y="-7" as="offset"/>
                    </mxGeometry>
                </mxCell>
                <mxCell id="579" value="Employee Task Managment System All Rights Reversed" style="rounded=1;whiteSpace=wrap;html=1;" parent="7026571954dc6520-1" vertex="1">
                    <mxGeometry y="780" width="1090" height="60" as="geometry"/>
                </mxCell>
                <mxCell id="2" value="" style="strokeWidth=1;shadow=0;dashed=0;align=center;html=1;shape=mxgraph.mockup.containers.browserWindow;rSize=0;strokeColor=#666666;mainText=,;recursiveResize=0;rounded=0;labelBackgroundColor=none;fontFamily=Verdana;fontSize=12;labelBorderColor=#FFFFFF;" parent="1" vertex="1">
                    <mxGeometry x="-3090" y="-2590" width="1420" height="840" as="geometry"/>
                </mxCell>
                <mxCell id="3" value="Page 1" style="strokeWidth=1;shadow=0;dashed=0;align=center;html=1;shape=mxgraph.mockup.containers.anchor;fontSize=17;fontColor=#666666;align=left;" parent="2" vertex="1">
                    <mxGeometry x="60" y="12" width="110" height="26" as="geometry"/>
                </mxCell>
                <mxCell id="4" value="https://www.default.com" style="strokeWidth=1;shadow=0;dashed=0;align=center;html=1;shape=mxgraph.mockup.containers.anchor;rSize=0;fontSize=17;fontColor=#666666;align=left;" parent="2" vertex="1">
                    <mxGeometry x="130" y="60" width="250" height="26" as="geometry"/>
                </mxCell>
                <mxCell id="75" value="" style="whiteSpace=wrap;html=1;aspect=fixed;" parent="2" vertex="1">
                    <mxGeometry x="270" y="250" width="440" height="440" as="geometry"/>
                </mxCell>
                <mxCell id="76" value="" style="endArrow=none;html=1;exitX=0;exitY=0.25;exitDx=0;exitDy=0;entryX=1;entryY=0.25;entryDx=0;entryDy=0;" parent="2" source="75" target="75" edge="1">
                    <mxGeometry width="50" height="50" relative="1" as="geometry">
                        <mxPoint x="900" y="430" as="sourcePoint"/>
                        <mxPoint x="950" y="380" as="targetPoint"/>
                    </mxGeometry>
                </mxCell>
                <mxCell id="97" value="EMPLOYEE TASK MANAGEMENT SYSTEM" style="rounded=0;whiteSpace=wrap;fontSize=20;labelBorderColor=#FFFFFF;" parent="2" vertex="1">
                    <mxGeometry x="280" y="290" width="420" height="60" as="geometry"/>
                </mxCell>
                <mxCell id="112" value="EMP_ID" style="text;html=1;strokeColor=none;fillColor=none;align=center;verticalAlign=middle;whiteSpace=wrap;rounded=0;labelBorderColor=#FFFFFF;fontSize=20;" parent="2" vertex="1">
                    <mxGeometry x="280" y="430" width="160" height="30" as="geometry"/>
                </mxCell>
                <mxCell id="114" value="PASSWORD" style="text;html=1;strokeColor=none;fillColor=none;align=center;verticalAlign=middle;whiteSpace=wrap;rounded=0;labelBorderColor=#FFFFFF;fontSize=20;" parent="2" vertex="1">
                    <mxGeometry x="330" y="510" width="60" height="30" as="geometry"/>
                </mxCell>
                <mxCell id="183" value="" style="endArrow=none;html=1;fontSize=20;exitX=1;exitY=1;exitDx=0;exitDy=0;" parent="2" edge="1">
                    <mxGeometry width="50" height="50" relative="1" as="geometry">
                        <mxPoint x="440" y="538.3299999999999" as="sourcePoint"/>
                        <mxPoint x="680" y="538.3299999999999" as="targetPoint"/>
                    </mxGeometry>
                </mxCell>
                <mxCell id="184" value="" style="rounded=1;whiteSpace=wrap;html=1;labelBorderColor=#FFFFFF;fontSize=20;fillColor=#0050ef;strokeColor=#001DBC;fontColor=#ffffff;" parent="2" vertex="1">
                    <mxGeometry x="435" y="560" width="90" height="30" as="geometry"/>
                </mxCell>
                <mxCell id="447" value="" style="endArrow=none;html=1;fontSize=20;exitX=1;exitY=1;exitDx=0;exitDy=0;" parent="2" edge="1">
                    <mxGeometry width="50" height="50" relative="1" as="geometry">
                        <mxPoint x="440" y="444.1700000000001" as="sourcePoint"/>
                        <mxPoint x="680" y="444.1700000000001" as="targetPoint"/>
                    </mxGeometry>
                </mxCell>
                <mxCell id="158" value="" style="strokeWidth=1;shadow=0;dashed=0;align=center;html=1;shape=mxgraph.mockup.containers.browserWindow;rSize=0;strokeColor=#666666;mainText=,;recursiveResize=0;rounded=0;labelBackgroundColor=none;fontFamily=Verdana;fontSize=12" parent="1" vertex="1">
                    <mxGeometry x="-5730" y="-3920" width="1050" height="840" as="geometry"/>
                </mxCell>
                <mxCell id="159" value="Page 1" style="strokeWidth=1;shadow=0;dashed=0;align=center;html=1;shape=mxgraph.mockup.containers.anchor;fontSize=17;fontColor=#666666;align=left;" parent="158" vertex="1">
                    <mxGeometry x="60" y="12" width="110" height="26" as="geometry"/>
                </mxCell>
                <mxCell id="160" value="https://www.default.com" style="strokeWidth=1;shadow=0;dashed=0;align=center;html=1;shape=mxgraph.mockup.containers.anchor;rSize=0;fontSize=17;fontColor=#666666;align=left;" parent="158" vertex="1">
                    <mxGeometry x="132" y="60" width="250" height="26" as="geometry"/>
                </mxCell>
                <mxCell id="161" style="edgeStyle=none;html=1;" parent="158" target="158" edge="1">
                    <mxGeometry relative="1" as="geometry">
                        <mxPoint x="2" y="388.5885885885882" as="sourcePoint"/>
                    </mxGeometry>
                </mxCell>
                <mxCell id="162" value="" style="rounded=0;whiteSpace=wrap;html=1;" parent="158" vertex="1">
                    <mxGeometry y="110" width="250" height="730" as="geometry"/>
                </mxCell>
                <mxCell id="163" value="" style="rounded=0;whiteSpace=wrap;html=1;" parent="158" vertex="1">
                    <mxGeometry x="250" y="110" width="800" height="80" as="geometry"/>
                </mxCell>
                <mxCell id="164" value="&lt;div style=&quot;&quot;&gt;&lt;span style=&quot;background-color: initial;&quot;&gt;&amp;nbsp; &amp;nbsp;Dashboard&lt;/span&gt;&lt;/div&gt;" style="rounded=0;whiteSpace=wrap;html=1;align=left;" parent="158" vertex="1">
                    <mxGeometry x="250" y="190" width="800" height="60" as="geometry"/>
                </mxCell>
                <mxCell id="165" value="" style="rounded=0;whiteSpace=wrap;html=1;" parent="158" vertex="1">
                    <mxGeometry y="110" width="250" height="130" as="geometry"/>
                </mxCell>
                <mxCell id="166" value="" style="ellipse;whiteSpace=wrap;html=1;aspect=fixed;" parent="158" vertex="1">
                    <mxGeometry x="25" y="125" width="70" height="70" as="geometry"/>
                </mxCell>
                <mxCell id="167" value="Test Employee" style="text;html=1;strokeColor=none;fillColor=none;align=center;verticalAlign=middle;whiteSpace=wrap;rounded=0;" parent="158" vertex="1">
                    <mxGeometry x="115" y="140" width="85" height="30" as="geometry"/>
                </mxCell>
                <mxCell id="168" value="abc@gmail.com" style="text;html=1;strokeColor=none;fillColor=none;align=center;verticalAlign=middle;whiteSpace=wrap;rounded=0;" parent="158" vertex="1">
                    <mxGeometry x="115" y="160" width="85" height="25" as="geometry"/>
                </mxCell>
                <mxCell id="169" value="" style="shape=actor;whiteSpace=wrap;html=1;" parent="158" vertex="1">
                    <mxGeometry x="40" y="150" width="40" height="35" as="geometry"/>
                </mxCell>
                <mxCell id="170" value="&lt;font style=&quot;font-size: 17px;&quot;&gt;Employee Task Managment System&lt;/font&gt;" style="text;html=1;strokeColor=none;fillColor=none;align=center;verticalAlign=middle;whiteSpace=wrap;rounded=0;" parent="158" vertex="1">
                    <mxGeometry x="292" y="120" width="508" height="70" as="geometry"/>
                </mxCell>
                <mxCell id="171" value="" style="rounded=0;whiteSpace=wrap;html=1;fontSize=17;" parent="158" vertex="1">
                    <mxGeometry x="810" y="110" width="240" height="80" as="geometry"/>
                </mxCell>
                <mxCell id="172" value="Test Employee (2423535)" style="text;html=1;strokeColor=none;fillColor=none;align=center;verticalAlign=middle;whiteSpace=wrap;rounded=0;fontSize=17;" parent="158" vertex="1">
                    <mxGeometry x="830" y="135" width="200" height="30" as="geometry"/>
                </mxCell>
                <mxCell id="173" value="&lt;font style=&quot;font-size: 21px;&quot;&gt;General&lt;/font&gt;" style="swimlane;fontStyle=0;childLayout=stackLayout;horizontal=1;startSize=70;horizontalStack=0;resizeParent=1;resizeParentMax=0;resizeLast=0;collapsible=1;marginBottom=0;whiteSpace=wrap;html=1;fontSize=17;" parent="158" vertex="1">
                    <mxGeometry y="240" width="250" height="170" as="geometry"/>
                </mxCell>
                <mxCell id="233" value="Dashboard" style="text;strokeColor=none;fillColor=none;align=left;verticalAlign=middle;spacingLeft=4;spacingRight=4;overflow=hidden;points=[[0,0.5],[1,0.5]];portConstraint=eastwest;rotatable=0;whiteSpace=wrap;html=1;fontSize=17;" parent="173" vertex="1">
                    <mxGeometry y="70" width="250" height="50" as="geometry"/>
                </mxCell>
                <mxCell id="175" value="&amp;nbsp;Task" style="text;strokeColor=none;fillColor=none;align=left;verticalAlign=middle;spacingLeft=4;spacingRight=4;overflow=hidden;points=[[0,0.5],[1,0.5]];portConstraint=eastwest;rotatable=0;whiteSpace=wrap;html=1;fontSize=17;" parent="173" vertex="1">
                    <mxGeometry y="120" width="250" height="50" as="geometry"/>
                </mxCell>
                <mxCell id="177" value="" style="rounded=0;whiteSpace=wrap;html=1;fontSize=21;" parent="158" vertex="1">
                    <mxGeometry x="250" y="250" width="800" height="590" as="geometry"/>
                </mxCell>
                <mxCell id="178" value="" style="rounded=1;whiteSpace=wrap;html=1;" parent="158" vertex="1">
                    <mxGeometry x="280" y="280" width="155" height="145" as="geometry"/>
                </mxCell>
                <mxCell id="179" value="" style="rounded=1;whiteSpace=wrap;html=1;" parent="158" vertex="1">
                    <mxGeometry x="468.5" y="280" width="155" height="145" as="geometry"/>
                </mxCell>
                <mxCell id="180" value="" style="rounded=1;whiteSpace=wrap;html=1;" parent="158" vertex="1">
                    <mxGeometry x="655" y="280" width="155" height="145" as="geometry"/>
                </mxCell>
                <mxCell id="181" value="Employee Task Managment System All Rights Reversed" style="rounded=1;whiteSpace=wrap;html=1;" parent="158" vertex="1">
                    <mxGeometry x="280" y="760" width="740" height="60" as="geometry"/>
                </mxCell>
                <mxCell id="187" value="New Tasks" style="sketch=0;pointerEvents=1;shadow=0;dashed=0;html=1;strokeColor=none;fillColor=#434445;aspect=fixed;labelPosition=center;verticalLabelPosition=bottom;verticalAlign=top;align=center;outlineConnect=0;shape=mxgraph.vvd.document;" parent="158" vertex="1">
                    <mxGeometry x="339.25" y="322.5" width="36.5" height="50" as="geometry"/>
                </mxCell>
                <mxCell id="189" value="Inprogress Task" style="sketch=0;pointerEvents=1;shadow=0;dashed=0;html=1;strokeColor=none;fillColor=#434445;aspect=fixed;labelPosition=center;verticalLabelPosition=bottom;verticalAlign=top;align=center;outlineConnect=0;shape=mxgraph.vvd.document;" parent="158" vertex="1">
                    <mxGeometry x="524.1" y="312.5" width="43.8" height="60" as="geometry"/>
                </mxCell>
                <mxCell id="194" value="Completed Task" style="sketch=0;pointerEvents=1;shadow=0;dashed=0;html=1;strokeColor=none;fillColor=#434445;aspect=fixed;labelPosition=center;verticalLabelPosition=bottom;verticalAlign=top;align=center;outlineConnect=0;shape=mxgraph.vvd.document;" parent="158" vertex="1">
                    <mxGeometry x="710.6000000000004" y="312.5" width="43.8" height="60" as="geometry"/>
                </mxCell>
                <mxCell id="195" value="" style="rounded=1;whiteSpace=wrap;html=1;" parent="158" vertex="1">
                    <mxGeometry x="840" y="280" width="155" height="145" as="geometry"/>
                </mxCell>
                <mxCell id="196" value="All Tasks" style="sketch=0;pointerEvents=1;shadow=0;dashed=0;html=1;strokeColor=none;fillColor=#434445;aspect=fixed;labelPosition=center;verticalLabelPosition=bottom;verticalAlign=top;align=center;outlineConnect=0;shape=mxgraph.vvd.document;" parent="158" vertex="1">
                    <mxGeometry x="900" y="312.5" width="43.8" height="60" as="geometry"/>
                </mxCell>
                <mxCell id="197" value="" style="strokeWidth=1;shadow=0;dashed=0;align=center;html=1;shape=mxgraph.mockup.containers.browserWindow;rSize=0;strokeColor=#666666;mainText=,;recursiveResize=0;rounded=0;labelBackgroundColor=none;fontFamily=Verdana;fontSize=12" parent="1" vertex="1">
                    <mxGeometry x="-4240" y="-3980" width="1050" height="840" as="geometry"/>
                </mxCell>
                <mxCell id="198" value="Page 1" style="strokeWidth=1;shadow=0;dashed=0;align=center;html=1;shape=mxgraph.mockup.containers.anchor;fontSize=17;fontColor=#666666;align=left;" parent="197" vertex="1">
                    <mxGeometry x="60" y="12" width="110" height="26" as="geometry"/>
                </mxCell>
                <mxCell id="199" value="https://www.default.com" style="strokeWidth=1;shadow=0;dashed=0;align=center;html=1;shape=mxgraph.mockup.containers.anchor;rSize=0;fontSize=17;fontColor=#666666;align=left;" parent="197" vertex="1">
                    <mxGeometry x="132" y="60" width="250" height="26" as="geometry"/>
                </mxCell>
                <mxCell id="200" style="edgeStyle=none;html=1;" parent="197" target="197" edge="1">
                    <mxGeometry relative="1" as="geometry">
                        <mxPoint x="2" y="388.5885885885882" as="sourcePoint"/>
                    </mxGeometry>
                </mxCell>
                <mxCell id="201" value="" style="rounded=0;whiteSpace=wrap;html=1;" parent="197" vertex="1">
                    <mxGeometry y="110" width="250" height="730" as="geometry"/>
                </mxCell>
                <mxCell id="202" value="" style="rounded=0;whiteSpace=wrap;html=1;" parent="197" vertex="1">
                    <mxGeometry x="250" y="110" width="800" height="80" as="geometry"/>
                </mxCell>
                <mxCell id="203" value="&lt;div style=&quot;&quot;&gt;&lt;span style=&quot;background-color: initial;&quot;&gt;&amp;nbsp; &amp;nbsp;Dashboard&lt;/span&gt;&lt;/div&gt;" style="rounded=0;whiteSpace=wrap;html=1;align=left;" parent="197" vertex="1">
                    <mxGeometry x="250" y="190" width="800" height="60" as="geometry"/>
                </mxCell>
                <mxCell id="204" value="" style="rounded=0;whiteSpace=wrap;html=1;" parent="197" vertex="1">
                    <mxGeometry y="110" width="250" height="130" as="geometry"/>
                </mxCell>
                <mxCell id="205" value="" style="ellipse;whiteSpace=wrap;html=1;aspect=fixed;" parent="197" vertex="1">
                    <mxGeometry x="25" y="125" width="70" height="70" as="geometry"/>
                </mxCell>
                <mxCell id="206" value="Admin" style="text;html=1;strokeColor=none;fillColor=none;align=center;verticalAlign=middle;whiteSpace=wrap;rounded=0;" parent="197" vertex="1">
                    <mxGeometry x="115" y="140" width="85" height="30" as="geometry"/>
                </mxCell>
                <mxCell id="207" value="admin@gmail.com" style="text;html=1;strokeColor=none;fillColor=none;align=center;verticalAlign=middle;whiteSpace=wrap;rounded=0;" parent="197" vertex="1">
                    <mxGeometry x="115" y="160" width="85" height="25" as="geometry"/>
                </mxCell>
                <mxCell id="208" value="" style="shape=actor;whiteSpace=wrap;html=1;" parent="197" vertex="1">
                    <mxGeometry x="40" y="150" width="40" height="35" as="geometry"/>
                </mxCell>
                <mxCell id="209" value="&lt;font style=&quot;font-size: 17px;&quot;&gt;Employee Task Managment System&lt;/font&gt;" style="text;html=1;strokeColor=none;fillColor=none;align=center;verticalAlign=middle;whiteSpace=wrap;rounded=0;" parent="197" vertex="1">
                    <mxGeometry x="292" y="120" width="508" height="70" as="geometry"/>
                </mxCell>
                <mxCell id="210" value="" style="rounded=0;whiteSpace=wrap;html=1;fontSize=17;" parent="197" vertex="1">
                    <mxGeometry x="810" y="110" width="240" height="80" as="geometry"/>
                </mxCell>
                <mxCell id="211" value="Admin" style="text;html=1;strokeColor=none;fillColor=none;align=center;verticalAlign=middle;whiteSpace=wrap;rounded=0;fontSize=17;" parent="197" vertex="1">
                    <mxGeometry x="830" y="135" width="200" height="30" as="geometry"/>
                </mxCell>
                <mxCell id="212" value="&lt;font style=&quot;font-size: 21px;&quot;&gt;General&lt;/font&gt;" style="swimlane;fontStyle=0;childLayout=stackLayout;horizontal=1;startSize=70;horizontalStack=0;resizeParent=1;resizeParentMax=0;resizeLast=0;collapsible=1;marginBottom=0;whiteSpace=wrap;html=1;fontSize=17;" parent="197" vertex="1">
                    <mxGeometry y="240" width="250" height="220" as="geometry"/>
                </mxCell>
                <mxCell id="213" value="Dashboard" style="text;strokeColor=none;fillColor=none;align=left;verticalAlign=middle;spacingLeft=4;spacingRight=4;overflow=hidden;points=[[0,0.5],[1,0.5]];portConstraint=eastwest;rotatable=0;whiteSpace=wrap;html=1;fontSize=17;" parent="212" vertex="1">
                    <mxGeometry y="70" width="250" height="30" as="geometry"/>
                </mxCell>
                <mxCell id="214" value="Department" style="text;strokeColor=none;fillColor=none;align=left;verticalAlign=middle;spacingLeft=4;spacingRight=4;overflow=hidden;points=[[0,0.5],[1,0.5]];portConstraint=eastwest;rotatable=0;whiteSpace=wrap;html=1;fontSize=17;" parent="212" vertex="1">
                    <mxGeometry y="100" width="250" height="30" as="geometry"/>
                </mxCell>
                <mxCell id="231" value="Task" style="text;strokeColor=none;fillColor=none;align=left;verticalAlign=middle;spacingLeft=4;spacingRight=4;overflow=hidden;points=[[0,0.5],[1,0.5]];portConstraint=eastwest;rotatable=0;whiteSpace=wrap;html=1;fontSize=17;" parent="212" vertex="1">
                    <mxGeometry y="130" width="250" height="30" as="geometry"/>
                </mxCell>
                <mxCell id="215" value="&amp;nbsp;Employee&lt;span style=&quot;color: rgba(0, 0, 0, 0); font-family: monospace; font-size: 0px;&quot;&gt;%3CmxGraphModel%3E%3Croot%3E%3CmxCell%20id%3D%220%22%2F%3E%3CmxCell%20id%3D%221%22%20parent%3D%220%22%2F%3E%3CmxCell%20id%3D%222%22%20value%3D%22Inprogress%20Tasks%22%20style%3D%22sketch%3D0%3BpointerEvents%3D1%3Bshadow%3D0%3Bdashed%3D0%3Bhtml%3D1%3BstrokeColor%3Dnone%3BfillColor%3D%23434445%3Baspect%3Dfixed%3BlabelPosition%3Dcenter%3BverticalLabelPosition%3Dbottom%3BverticalAlign%3Dtop%3Balign%3Dcenter%3BoutlineConnect%3D0%3Bshape%3Dmxgraph.vvd.document%3B%22%20vertex%3D%221%22%20parent%3D%221%22%3E%3CmxGeometry%20x%3D%22-3350.75%22%20y%3D%22-3547.5%22%20width%3D%2236.5%22%20height%3D%2250%22%20as%3D%22geometry%22%2F%3E%3C%2FmxCell%3E%3C%2Froot%3E%3C%2FmxGraphModel%3E&lt;/span&gt;" style="text;strokeColor=none;fillColor=none;align=left;verticalAlign=middle;spacingLeft=4;spacingRight=4;overflow=hidden;points=[[0,0.5],[1,0.5]];portConstraint=eastwest;rotatable=0;whiteSpace=wrap;html=1;fontSize=17;" parent="212" vertex="1">
                    <mxGeometry y="160" width="250" height="30" as="geometry"/>
                </mxCell>
                <mxCell id="484" value="&amp;nbsp;Search" style="text;strokeColor=none;fillColor=none;align=left;verticalAlign=middle;spacingLeft=4;spacingRight=4;overflow=hidden;points=[[0,0.5],[1,0.5]];portConstraint=eastwest;rotatable=0;whiteSpace=wrap;html=1;fontSize=17;" parent="212" vertex="1">
                    <mxGeometry y="190" width="250" height="30" as="geometry"/>
                </mxCell>
                <mxCell id="216" value="" style="rounded=0;whiteSpace=wrap;html=1;fontSize=21;" parent="197" vertex="1">
                    <mxGeometry x="250" y="250" width="800" height="590" as="geometry"/>
                </mxCell>
                <mxCell id="217" value="" style="rounded=1;whiteSpace=wrap;html=1;" parent="197" vertex="1">
                    <mxGeometry x="280" y="280" width="155" height="145" as="geometry"/>
                </mxCell>
                <mxCell id="218" value="" style="rounded=1;whiteSpace=wrap;html=1;" parent="197" vertex="1">
                    <mxGeometry x="468.5" y="280" width="155" height="145" as="geometry"/>
                </mxCell>
                <mxCell id="219" value="" style="rounded=1;whiteSpace=wrap;html=1;" parent="197" vertex="1">
                    <mxGeometry x="655" y="280" width="155" height="145" as="geometry"/>
                </mxCell>
                <mxCell id="220" value="Employee Task Managment System All Rights Reversed" style="rounded=1;whiteSpace=wrap;html=1;" parent="197" vertex="1">
                    <mxGeometry x="280" y="760" width="740" height="60" as="geometry"/>
                </mxCell>
                <mxCell id="221" value="Total Department" style="sketch=0;pointerEvents=1;shadow=0;dashed=0;html=1;strokeColor=none;fillColor=#434445;aspect=fixed;labelPosition=center;verticalLabelPosition=bottom;verticalAlign=top;align=center;outlineConnect=0;shape=mxgraph.vvd.document;" parent="197" vertex="1">
                    <mxGeometry x="339.25" y="322.5" width="36.5" height="50" as="geometry"/>
                </mxCell>
                <mxCell id="222" value="Total Employees" style="sketch=0;pointerEvents=1;shadow=0;dashed=0;html=1;strokeColor=none;fillColor=#434445;aspect=fixed;labelPosition=center;verticalLabelPosition=bottom;verticalAlign=top;align=center;outlineConnect=0;shape=mxgraph.vvd.document;" parent="197" vertex="1">
                    <mxGeometry x="524.1" y="312.5" width="43.8" height="60" as="geometry"/>
                </mxCell>
                <mxCell id="223" value="Completed Task" style="sketch=0;pointerEvents=1;shadow=0;dashed=0;html=1;strokeColor=none;fillColor=#434445;aspect=fixed;labelPosition=center;verticalLabelPosition=bottom;verticalAlign=top;align=center;outlineConnect=0;shape=mxgraph.vvd.document;" parent="197" vertex="1">
                    <mxGeometry x="710.6000000000004" y="312.5" width="43.8" height="60" as="geometry"/>
                </mxCell>
                <mxCell id="224" value="" style="rounded=1;whiteSpace=wrap;html=1;" parent="197" vertex="1">
                    <mxGeometry x="840" y="280" width="155" height="145" as="geometry"/>
                </mxCell>
                <mxCell id="226" value="" style="rounded=1;whiteSpace=wrap;html=1;" parent="197" vertex="1">
                    <mxGeometry x="280" y="450" width="155" height="145" as="geometry"/>
                </mxCell>
                <mxCell id="227" value="Inprogress Tasks" style="sketch=0;pointerEvents=1;shadow=0;dashed=0;html=1;strokeColor=none;fillColor=#434445;aspect=fixed;labelPosition=center;verticalLabelPosition=bottom;verticalAlign=top;align=center;outlineConnect=0;shape=mxgraph.vvd.document;" parent="197" vertex="1">
                    <mxGeometry x="899.25" y="322.5" width="36.5" height="50" as="geometry"/>
                </mxCell>
                <mxCell id="228" value="All Tasks" style="sketch=0;pointerEvents=1;shadow=0;dashed=0;html=1;strokeColor=none;fillColor=#434445;aspect=fixed;labelPosition=center;verticalLabelPosition=bottom;verticalAlign=top;align=center;outlineConnect=0;shape=mxgraph.vvd.document;" parent="197" vertex="1">
                    <mxGeometry x="339.25" y="490" width="36.5" height="50" as="geometry"/>
                </mxCell>
                <mxCell id="234" value="" style="strokeWidth=1;shadow=0;dashed=0;align=center;html=1;shape=mxgraph.mockup.containers.browserWindow;rSize=0;strokeColor=#666666;mainText=,;recursiveResize=0;rounded=0;labelBackgroundColor=none;fontFamily=Verdana;fontSize=12" parent="1" vertex="1">
                    <mxGeometry x="-2840" y="-3980" width="1050" height="840" as="geometry"/>
                </mxCell>
                <mxCell id="235" value="Page 1" style="strokeWidth=1;shadow=0;dashed=0;align=center;html=1;shape=mxgraph.mockup.containers.anchor;fontSize=17;fontColor=#666666;align=left;" parent="234" vertex="1">
                    <mxGeometry x="60" y="12" width="110" height="26" as="geometry"/>
                </mxCell>
                <mxCell id="236" value="https://www.default.com" style="strokeWidth=1;shadow=0;dashed=0;align=center;html=1;shape=mxgraph.mockup.containers.anchor;rSize=0;fontSize=17;fontColor=#666666;align=left;" parent="234" vertex="1">
                    <mxGeometry x="132" y="60" width="250" height="26" as="geometry"/>
                </mxCell>
                <mxCell id="237" style="edgeStyle=none;html=1;" parent="234" target="234" edge="1">
                    <mxGeometry relative="1" as="geometry">
                        <mxPoint x="2" y="388.5885885885882" as="sourcePoint"/>
                    </mxGeometry>
                </mxCell>
                <mxCell id="238" value="" style="rounded=0;whiteSpace=wrap;html=1;" parent="234" vertex="1">
                    <mxGeometry y="110" width="250" height="730" as="geometry"/>
                </mxCell>
                <mxCell id="239" value="" style="rounded=0;whiteSpace=wrap;html=1;" parent="234" vertex="1">
                    <mxGeometry x="250" y="110" width="800" height="80" as="geometry"/>
                </mxCell>
                <mxCell id="240" value="&lt;div style=&quot;&quot;&gt;&lt;span style=&quot;background-color: initial;&quot;&gt;Task Details&lt;/span&gt;&lt;/div&gt;" style="rounded=0;whiteSpace=wrap;html=1;align=center;" parent="234" vertex="1">
                    <mxGeometry x="250" y="190" width="800" height="60" as="geometry"/>
                </mxCell>
                <mxCell id="241" value="" style="rounded=0;whiteSpace=wrap;html=1;" parent="234" vertex="1">
                    <mxGeometry y="110" width="250" height="130" as="geometry"/>
                </mxCell>
                <mxCell id="242" value="" style="ellipse;whiteSpace=wrap;html=1;aspect=fixed;" parent="234" vertex="1">
                    <mxGeometry x="25" y="125" width="70" height="70" as="geometry"/>
                </mxCell>
                <mxCell id="243" value="Admin" style="text;html=1;strokeColor=none;fillColor=none;align=center;verticalAlign=middle;whiteSpace=wrap;rounded=0;" parent="234" vertex="1">
                    <mxGeometry x="115" y="140" width="85" height="30" as="geometry"/>
                </mxCell>
                <mxCell id="244" value="admin@gmail.com" style="text;html=1;strokeColor=none;fillColor=none;align=center;verticalAlign=middle;whiteSpace=wrap;rounded=0;" parent="234" vertex="1">
                    <mxGeometry x="115" y="160" width="85" height="25" as="geometry"/>
                </mxCell>
                <mxCell id="245" value="" style="shape=actor;whiteSpace=wrap;html=1;" parent="234" vertex="1">
                    <mxGeometry x="40" y="150" width="40" height="35" as="geometry"/>
                </mxCell>
                <mxCell id="246" value="&lt;font style=&quot;font-size: 17px;&quot;&gt;Employee Task Managment System&lt;/font&gt;" style="text;html=1;strokeColor=none;fillColor=none;align=center;verticalAlign=middle;whiteSpace=wrap;rounded=0;" parent="234" vertex="1">
                    <mxGeometry x="292" y="120" width="508" height="70" as="geometry"/>
                </mxCell>
                <mxCell id="247" value="" style="rounded=0;whiteSpace=wrap;html=1;fontSize=17;" parent="234" vertex="1">
                    <mxGeometry x="810" y="110" width="240" height="80" as="geometry"/>
                </mxCell>
                <mxCell id="248" value="Admin" style="text;html=1;strokeColor=none;fillColor=none;align=center;verticalAlign=middle;whiteSpace=wrap;rounded=0;fontSize=17;" parent="234" vertex="1">
                    <mxGeometry x="830" y="135" width="200" height="30" as="geometry"/>
                </mxCell>
                <mxCell id="249" value="&lt;font style=&quot;font-size: 21px;&quot;&gt;General&lt;/font&gt;" style="swimlane;fontStyle=0;childLayout=stackLayout;horizontal=1;startSize=70;horizontalStack=0;resizeParent=1;resizeParentMax=0;resizeLast=0;collapsible=1;marginBottom=0;whiteSpace=wrap;html=1;fontSize=17;opacity=60;" parent="234" vertex="1">
                    <mxGeometry y="240" width="250" height="190" as="geometry"/>
                </mxCell>
                <mxCell id="250" value="Dashboard" style="text;strokeColor=none;fillColor=none;align=left;verticalAlign=middle;spacingLeft=4;spacingRight=4;overflow=hidden;points=[[0,0.5],[1,0.5]];portConstraint=eastwest;rotatable=0;whiteSpace=wrap;html=1;fontSize=17;" parent="249" vertex="1">
                    <mxGeometry y="70" width="250" height="30" as="geometry"/>
                </mxCell>
                <mxCell id="251" value="Department" style="text;strokeColor=none;fillColor=none;align=left;verticalAlign=middle;spacingLeft=4;spacingRight=4;overflow=hidden;points=[[0,0.5],[1,0.5]];portConstraint=eastwest;rotatable=0;whiteSpace=wrap;html=1;fontSize=17;" parent="249" vertex="1">
                    <mxGeometry y="100" width="250" height="30" as="geometry"/>
                </mxCell>
                <mxCell id="252" value="Task" style="text;strokeColor=none;fillColor=none;align=left;verticalAlign=middle;spacingLeft=4;spacingRight=4;overflow=hidden;points=[[0,0.5],[1,0.5]];portConstraint=eastwest;rotatable=0;whiteSpace=wrap;html=1;fontSize=17;" parent="249" vertex="1">
                    <mxGeometry y="130" width="250" height="30" as="geometry"/>
                </mxCell>
                <mxCell id="253" value="&amp;nbsp;Employee&lt;span style=&quot;color: rgba(0, 0, 0, 0); font-family: monospace; font-size: 0px;&quot;&gt;%3CmxGraphModel%3E%3Croot%3E%3CmxCell%20id%3D%220%22%2F%3E%3CmxCell%20id%3D%221%22%20parent%3D%220%22%2F%3E%3CmxCell%20id%3D%222%22%20value%3D%22Inprogress%20Tasks%22%20style%3D%22sketch%3D0%3BpointerEvents%3D1%3Bshadow%3D0%3Bdashed%3D0%3Bhtml%3D1%3BstrokeColor%3Dnone%3BfillColor%3D%23434445%3Baspect%3Dfixed%3BlabelPosition%3Dcenter%3BverticalLabelPosition%3Dbottom%3BverticalAlign%3Dtop%3Balign%3Dcenter%3BoutlineConnect%3D0%3Bshape%3Dmxgraph.vvd.document%3B%22%20vertex%3D%221%22%20parent%3D%221%22%3E%3CmxGeometry%20x%3D%22-3350.75%22%20y%3D%22-3547.5%22%20width%3D%2236.5%22%20height%3D%2250%22%20as%3D%22geometry%22%2F%3E%3C%2FmxCell%3E%3C%2Froot%3E%3C%2FmxGraphModel%3E&lt;/span&gt;" style="text;strokeColor=none;fillColor=none;align=left;verticalAlign=middle;spacingLeft=4;spacingRight=4;overflow=hidden;points=[[0,0.5],[1,0.5]];portConstraint=eastwest;rotatable=0;whiteSpace=wrap;html=1;fontSize=17;" parent="249" vertex="1">
                    <mxGeometry y="160" width="250" height="30" as="geometry"/>
                </mxCell>
                <mxCell id="254" value="" style="rounded=0;whiteSpace=wrap;html=1;fontSize=21;opacity=50;" parent="234" vertex="1">
                    <mxGeometry x="250" y="250" width="800" height="590" as="geometry"/>
                </mxCell>
                <mxCell id="258" value="Employee Task Managment System All Rights Reversed" style="rounded=1;whiteSpace=wrap;html=1;" parent="234" vertex="1">
                    <mxGeometry x="280" y="760" width="740" height="60" as="geometry"/>
                </mxCell>
                <mxCell id="427" value="" style="shape=table;startSize=0;container=1;collapsible=0;childLayout=tableLayout;opacity=20;" parent="234" vertex="1">
                    <mxGeometry x="281" y="280" width="730" height="220" as="geometry"/>
                </mxCell>
                <mxCell id="428" value="" style="shape=tableRow;horizontal=0;startSize=0;swimlaneHead=0;swimlaneBody=0;top=0;left=0;bottom=0;right=0;collapsible=0;dropTarget=0;fillColor=none;points=[[0,0.5],[1,0.5]];portConstraint=eastwest;" parent="427" vertex="1">
                    <mxGeometry width="730" height="44" as="geometry"/>
                </mxCell>
                <mxCell id="429" value="&lt;b&gt;&amp;nbsp;Task Title&lt;span style=&quot;white-space: pre;&quot;&gt;&#9;&lt;/span&gt;&lt;/b&gt;" style="shape=partialRectangle;html=1;whiteSpace=wrap;connectable=0;overflow=hidden;fillColor=none;top=0;left=0;bottom=0;right=0;pointerEvents=1;align=left;" parent="428" vertex="1">
                    <mxGeometry width="220" height="44" as="geometry">
                        <mxRectangle width="220" height="44" as="alternateBounds"/>
                    </mxGeometry>
                </mxCell>
                <mxCell id="430" value="&amp;nbsp;Test for task title" style="shape=partialRectangle;html=1;whiteSpace=wrap;connectable=0;overflow=hidden;fillColor=none;top=0;left=0;bottom=0;right=0;pointerEvents=1;align=left;" parent="428" vertex="1">
                    <mxGeometry x="220" width="510" height="44" as="geometry">
                        <mxRectangle width="510" height="44" as="alternateBounds"/>
                    </mxGeometry>
                </mxCell>
                <mxCell id="431" value="" style="shape=tableRow;horizontal=0;startSize=0;swimlaneHead=0;swimlaneBody=0;top=0;left=0;bottom=0;right=0;collapsible=0;dropTarget=0;fillColor=none;points=[[0,0.5],[1,0.5]];portConstraint=eastwest;" parent="427" vertex="1">
                    <mxGeometry y="44" width="730" height="44" as="geometry"/>
                </mxCell>
                <mxCell id="432" value="&lt;b&gt;&amp;nbsp;Task Details&lt;/b&gt;" style="shape=partialRectangle;html=1;whiteSpace=wrap;connectable=0;overflow=hidden;fillColor=none;top=0;left=0;bottom=0;right=0;pointerEvents=1;align=left;" parent="431" vertex="1">
                    <mxGeometry width="220" height="44" as="geometry">
                        <mxRectangle width="220" height="44" as="alternateBounds"/>
                    </mxGeometry>
                </mxCell>
                <mxCell id="433" value="&amp;nbsp;Test for task details" style="shape=partialRectangle;html=1;whiteSpace=wrap;connectable=0;overflow=hidden;fillColor=none;top=0;left=0;bottom=0;right=0;pointerEvents=1;align=left;" parent="431" vertex="1">
                    <mxGeometry x="220" width="510" height="44" as="geometry">
                        <mxRectangle width="510" height="44" as="alternateBounds"/>
                    </mxGeometry>
                </mxCell>
                <mxCell id="434" value="" style="shape=tableRow;horizontal=0;startSize=0;swimlaneHead=0;swimlaneBody=0;top=0;left=0;bottom=0;right=0;collapsible=0;dropTarget=0;fillColor=none;points=[[0,0.5],[1,0.5]];portConstraint=eastwest;" parent="427" vertex="1">
                    <mxGeometry y="88" width="730" height="44" as="geometry"/>
                </mxCell>
                <mxCell id="435" value="&lt;b&gt;&amp;nbsp;Task Assign Date&lt;/b&gt;" style="shape=partialRectangle;html=1;whiteSpace=wrap;connectable=0;overflow=hidden;fillColor=none;top=0;left=0;bottom=0;right=0;pointerEvents=1;align=left;" parent="434" vertex="1">
                    <mxGeometry width="220" height="44" as="geometry">
                        <mxRectangle width="220" height="44" as="alternateBounds"/>
                    </mxGeometry>
                </mxCell>
                <mxCell id="436" value="&amp;nbsp;2024-04-26" style="shape=partialRectangle;html=1;whiteSpace=wrap;connectable=0;overflow=hidden;fillColor=none;top=0;left=0;bottom=0;right=0;pointerEvents=1;align=left;" parent="434" vertex="1">
                    <mxGeometry x="220" width="510" height="44" as="geometry">
                        <mxRectangle width="510" height="44" as="alternateBounds"/>
                    </mxGeometry>
                </mxCell>
                <mxCell id="437" value="" style="shape=tableRow;horizontal=0;startSize=0;swimlaneHead=0;swimlaneBody=0;top=0;left=0;bottom=0;right=0;collapsible=0;dropTarget=0;fillColor=none;points=[[0,0.5],[1,0.5]];portConstraint=eastwest;" parent="427" vertex="1">
                    <mxGeometry y="132" width="730" height="44" as="geometry"/>
                </mxCell>
                <mxCell id="438" value="&lt;b&gt;&amp;nbsp;Task Finish Date&lt;/b&gt;" style="shape=partialRectangle;html=1;whiteSpace=wrap;connectable=0;overflow=hidden;fillColor=none;top=0;left=0;bottom=0;right=0;pointerEvents=1;align=left;" parent="437" vertex="1">
                    <mxGeometry width="220" height="44" as="geometry">
                        <mxRectangle width="220" height="44" as="alternateBounds"/>
                    </mxGeometry>
                </mxCell>
                <mxCell id="439" value="&amp;nbsp;2024-04-30" style="shape=partialRectangle;html=1;whiteSpace=wrap;connectable=0;overflow=hidden;fillColor=none;top=0;left=0;bottom=0;right=0;pointerEvents=1;align=left;" parent="437" vertex="1">
                    <mxGeometry x="220" width="510" height="44" as="geometry">
                        <mxRectangle width="510" height="44" as="alternateBounds"/>
                    </mxGeometry>
                </mxCell>
                <mxCell id="440" style="shape=tableRow;horizontal=0;startSize=0;swimlaneHead=0;swimlaneBody=0;top=0;left=0;bottom=0;right=0;collapsible=0;dropTarget=0;fillColor=none;points=[[0,0.5],[1,0.5]];portConstraint=eastwest;" parent="427" vertex="1">
                    <mxGeometry y="176" width="730" height="44" as="geometry"/>
                </mxCell>
                <mxCell id="441" value="&lt;b&gt;&amp;nbsp;Task Final Status&lt;/b&gt;" style="shape=partialRectangle;html=1;whiteSpace=wrap;connectable=0;overflow=hidden;fillColor=none;top=0;left=0;bottom=0;right=0;pointerEvents=1;align=left;" parent="440" vertex="1">
                    <mxGeometry width="220" height="44" as="geometry">
                        <mxRectangle width="220" height="44" as="alternateBounds"/>
                    </mxGeometry>
                </mxCell>
                <mxCell id="442" value="&amp;nbsp;Completed&amp;nbsp;" style="shape=partialRectangle;html=1;whiteSpace=wrap;connectable=0;overflow=hidden;fillColor=none;top=0;left=0;bottom=0;right=0;pointerEvents=1;align=left;" parent="440" vertex="1">
                    <mxGeometry x="220" width="510" height="44" as="geometry">
                        <mxRectangle width="510" height="44" as="alternateBounds"/>
                    </mxGeometry>
                </mxCell>
                <mxCell id="443" value="" style="strokeWidth=1;shadow=0;dashed=0;align=center;html=1;shape=mxgraph.mockup.containers.browserWindow;rSize=0;strokeColor=#666666;mainText=,;recursiveResize=0;rounded=0;labelBackgroundColor=none;fontFamily=Verdana;fontSize=12" parent="1" vertex="1">
                    <mxGeometry x="-4200" y="-1040" width="1050" height="840" as="geometry"/>
                </mxCell>
                <mxCell id="444" value="Page 1" style="strokeWidth=1;shadow=0;dashed=0;align=center;html=1;shape=mxgraph.mockup.containers.anchor;fontSize=17;fontColor=#666666;align=left;" parent="443" vertex="1">
                    <mxGeometry x="60" y="12" width="110" height="26" as="geometry"/>
                </mxCell>
                <mxCell id="445" value="https://www.default.com" style="strokeWidth=1;shadow=0;dashed=0;align=center;html=1;shape=mxgraph.mockup.containers.anchor;rSize=0;fontSize=17;fontColor=#666666;align=left;" parent="443" vertex="1">
                    <mxGeometry x="130" y="60" width="250" height="26" as="geometry"/>
                </mxCell>
                <mxCell id="446" value="" style="verticalLabelPosition=bottom;shadow=0;dashed=0;align=center;html=1;verticalAlign=top;strokeWidth=1;shape=mxgraph.mockup.markup.line;strokeColor=#999999;rounded=0;labelBackgroundColor=none;fillColor=#ffffff;fontFamily=Verdana;fontSize=12;fontColor=#000000;" parent="443" vertex="1">
                    <mxGeometry y="310" width="1050" height="20" as="geometry"/>
                </mxCell>
                <mxCell id="604" value="" style="strokeWidth=1;shadow=0;dashed=0;align=center;html=1;shape=mxgraph.mockup.containers.browserWindow;rSize=0;strokeColor=#666666;mainText=,;recursiveResize=0;rounded=0;labelBackgroundColor=none;fontFamily=Verdana;fontSize=12" vertex="1" parent="1">
                    <mxGeometry x="-5840" y="-1820" width="1050" height="840" as="geometry"/>
                </mxCell>
                <mxCell id="605" value="Page 1" style="strokeWidth=1;shadow=0;dashed=0;align=center;html=1;shape=mxgraph.mockup.containers.anchor;fontSize=17;fontColor=#666666;align=left;" vertex="1" parent="604">
                    <mxGeometry x="60" y="12" width="110" height="26" as="geometry"/>
                </mxCell>
                <mxCell id="606" value="https://www.default.com" style="strokeWidth=1;shadow=0;dashed=0;align=center;html=1;shape=mxgraph.mockup.containers.anchor;rSize=0;fontSize=17;fontColor=#666666;align=left;" vertex="1" parent="604">
                    <mxGeometry x="130" y="60" width="250" height="26" as="geometry"/>
                </mxCell>
                <mxCell id="616" value="" style="rounded=0;whiteSpace=wrap;html=1;" vertex="1" parent="1">
                    <mxGeometry x="-5840" y="-1710" width="1050" height="730" as="geometry"/>
                </mxCell>
                <mxCell id="617" value="" style="rounded=0;whiteSpace=wrap;html=1;" vertex="1" parent="1">
                    <mxGeometry x="-5560" y="-1595" width="490" height="375" as="geometry"/>
                </mxCell>
                <mxCell id="618" value="&lt;u&gt;Login&lt;/u&gt;" style="text;html=1;strokeColor=none;fillColor=none;align=center;verticalAlign=middle;whiteSpace=wrap;rounded=0;" vertex="1" parent="1">
                    <mxGeometry x="-5350" y="-1570" width="60" height="30" as="geometry"/>
                </mxCell>
                <mxCell id="619" value="Email" style="fillColor=none;strokeColor=none;align=left;fontSize=14;fontColor=#f7fafd;" vertex="1" parent="1">
                    <mxGeometry x="-5520" y="-1500" width="260" height="40" as="geometry"/>
                </mxCell>
                <mxCell id="620" value="Enter Email" style="html=1;shadow=0;dashed=0;shape=mxgraph.bootstrap.rrect;rSize=5;fillColor=none;strokeColor=#999999;align=left;spacing=15;fontSize=14;fontColor=#6C767D;" vertex="1" parent="1">
                    <mxGeometry width="400" height="30" relative="1" as="geometry">
                        <mxPoint x="-5515" y="-1460" as="offset"/>
                    </mxGeometry>
                </mxCell>
                <mxCell id="621" value="Password" style="fillColor=none;strokeColor=none;align=left;fontSize=14;fontColor=#FFFFFF;" vertex="1" parent="1">
                    <mxGeometry width="260" height="40" relative="1" as="geometry">
                        <mxPoint x="-5520" y="-1420" as="offset"/>
                    </mxGeometry>
                </mxCell>
                <mxCell id="622" value="Password" style="html=1;shadow=0;dashed=0;shape=mxgraph.bootstrap.rrect;rSize=5;fillColor=none;strokeColor=#999999;align=left;spacing=15;fontSize=14;fontColor=#6C767D;" vertex="1" parent="1">
                    <mxGeometry width="410" height="30" relative="1" as="geometry">
                        <mxPoint x="-5520" y="-1380" as="offset"/>
                    </mxGeometry>
                </mxCell>
                <mxCell id="623" value="Loin in" style="rounded=1;html=1;shadow=0;dashed=0;whiteSpace=wrap;fontSize=10;fillColor=#666666;align=center;strokeColor=#4D4D4D;fontColor=#ffffff;" vertex="1" parent="1">
                    <mxGeometry x="-5367.75" y="-1283" width="105.5" height="16.88" as="geometry"/>
                </mxCell>
                <mxCell id="624" value="" style="strokeWidth=1;shadow=0;dashed=0;align=center;html=1;shape=mxgraph.mockup.containers.browserWindow;rSize=0;strokeColor=#666666;mainText=,;recursiveResize=0;rounded=0;labelBackgroundColor=none;fontFamily=Verdana;fontSize=12" vertex="1" parent="1">
                    <mxGeometry x="-4550" y="-2240" width="1050" height="840" as="geometry"/>
                </mxCell>
                <mxCell id="625" value="Page 1" style="strokeWidth=1;shadow=0;dashed=0;align=center;html=1;shape=mxgraph.mockup.containers.anchor;fontSize=17;fontColor=#666666;align=left;" vertex="1" parent="624">
                    <mxGeometry x="60" y="12" width="110" height="26" as="geometry"/>
                </mxCell>
                <mxCell id="626" value="https://www.default.com" style="strokeWidth=1;shadow=0;dashed=0;align=center;html=1;shape=mxgraph.mockup.containers.anchor;rSize=0;fontSize=17;fontColor=#666666;align=left;" vertex="1" parent="624">
                    <mxGeometry x="130" y="60" width="250" height="26" as="geometry"/>
                </mxCell>
                <mxCell id="627" value="" style="rounded=0;whiteSpace=wrap;html=1;" vertex="1" parent="624">
                    <mxGeometry y="110" width="1050" height="730" as="geometry"/>
                </mxCell>
            </root>
        </mxGraphModel>
    </diagram>
</mxfile>